<?xml version="1.0" encoding="UTF-8" standalone="no" ?>
<!DOCTYPE svg PUBLIC "-//W3C//DTD SVG 1.1//EN" "http://www.w3.org/Graphics/SVG/1.1/DTD/svg11.dtd">
<svg xmlns="http://www.w3.org/2000/svg" xmlns:xlink="http://www.w3.org/1999/xlink" version="1.1" width="500" height="500" viewBox="0 0 500 500" xml:space="preserve">
<desc>Created with Fabric.js 4.6.0</desc>
<defs>
</defs>
<g transform="matrix(1.95 0 0 1.95 247.88 439.06)" id="7LwikyOAJoA6fTcyc0YHl"  >
<path style="stroke: rgb(255,255,255); stroke-opacity: 0; stroke-width: 0; stroke-dasharray: none; stroke-linecap: butt; stroke-dashoffset: 0; stroke-linejoin: miter; stroke-miterlimit: 4; fill: rgb(255,255,255); fill-rule: nonzero; opacity: 1;" vector-effect="non-scaling-stroke"  transform=" translate(0, 0)" d="M 0 -29.7619 C 16.42857 -29.7619 29.7619 -16.42857 29.7619 0 C 29.7619 16.42857 16.42857 29.7619 0 29.7619 C -16.42857 29.7619 -29.7619 16.42857 -29.7619 0 C -29.7619 -16.42857 -16.42857 -29.7619 0 -29.7619 z" stroke-linecap="round" />
</g>
<g transform="matrix(3.56 0 0 2.94 247.87 172.92)" id="NJ_FpdKv8ZqyiaddMJqJU"  >
<path style="stroke: rgb(255,255,255); stroke-opacity: 0; stroke-width: 0; stroke-dasharray: none; stroke-linecap: butt; stroke-dashoffset: 0; stroke-linejoin: miter; stroke-miterlimit: 4; fill: rgb(255,255,255); fill-rule: nonzero; opacity: 1;" vector-effect="non-scaling-stroke"  transform=" translate(0, 0)" d="M -16.74912 -38.68331 C -17.030450000000002 -42.75316 -15.88779 -46.779309999999995 -13.59842 -49.78487 C -11.309050000000001 -52.79043 -8.082180000000001 -54.500699999999995 -4.700800000000001 -54.500699999999995 L 4.733559999999999 -54.500699999999995 L 4.733559999999999 -54.500699999999995 C 8.116229999999998 -54.500699999999995 11.343329999999998 -52.78451999999999 13.627369999999999 -49.770939999999996 C 15.91141 -46.75736 17.04231 -42.72358 16.7441 -38.653929999999995 L 10.78668 42.64683 L 10.78668 42.64683 C 10.29505 49.35611 5.641920000000001 54.5007 0.06522000000000006 54.5007 L -0.09490999999999994 54.5007 L -0.09490999999999994 54.5007 C -5.8678099999999995 54.5007 -10.67723 49.15668 -11.157530000000001 42.208380000000005 z" stroke-linecap="round" />
</g>
</svg>