<?xml version="1.0" encoding="UTF-8" standalone="no" ?>
<!DOCTYPE svg PUBLIC "-//W3C//DTD SVG 1.1//EN" "http://www.w3.org/Graphics/SVG/1.1/DTD/svg11.dtd">
<svg xmlns="http://www.w3.org/2000/svg" xmlns:xlink="http://www.w3.org/1999/xlink" version="1.1" width="500" height="500" viewBox="0 0 500 500" xml:space="preserve">
<desc>Created with Fabric.js 4.6.0</desc>
<defs>
</defs>
<g transform="matrix(0.55 0 0 2.4 159.55 249.98)" id="WqZcBwQy7Wvvr8-lQIvJN"  >
<path style="stroke: rgb(109,151,175); stroke-width: 0; stroke-dasharray: none; stroke-linecap: butt; stroke-dashoffset: 0; stroke-linejoin: miter; stroke-miterlimit: 4; fill: rgb(255,255,255); fill-rule: nonzero; opacity: 1;" vector-effect="non-scaling-stroke"  transform=" translate(0, 0)" d="M -85.41667 -68.33841 C -85.41667 -72.86784 -77.62576 -77.21177 -63.757859999999994 -80.41456 C -49.889959999999995 -83.61734999999999 -31.08104999999999 -85.41666 -11.468869999999995 -85.41666 L 11.468870000000006 -85.41666 L 11.468870000000006 -85.41666 C 31.081050000000005 -85.41666 49.88996 -83.61734999999999 63.75786000000001 -80.41454999999999 C 77.62576000000001 -77.21176 85.41667000000001 -72.86783 85.41667000000001 -68.3384 L 85.41667000000001 68.33843 L 85.41667000000001 68.33843 C 85.41667000000001 77.77049 52.30911000000001 85.41668 11.46887000000001 85.41668 L -11.468869999999992 85.41668 L -11.468869999999992 85.41668 C -52.30910999999999 85.41668 -85.41667 77.77047999999999 -85.41667 68.33843 z" stroke-linecap="round" />
</g>
<g transform="matrix(0.55 0 0 2.4 349.91 249.99)" id="aqzNlsFitD1o92no40ZYm"  >
<path style="stroke: rgb(109,151,175); stroke-width: 0; stroke-dasharray: none; stroke-linecap: butt; stroke-dashoffset: 0; stroke-linejoin: miter; stroke-miterlimit: 4; fill: rgb(255,255,255); fill-rule: nonzero; opacity: 1;" vector-effect="non-scaling-stroke"  transform=" translate(0, 0)" d="M -85.41667 -68.33841 C -85.41667 -72.86784 -77.62576 -77.21177 -63.757859999999994 -80.41456 C -49.889959999999995 -83.61734999999999 -31.08104999999999 -85.41666 -11.468869999999995 -85.41666 L 11.468870000000006 -85.41666 L 11.468870000000006 -85.41666 C 31.081050000000005 -85.41666 49.88996 -83.61734999999999 63.75786000000001 -80.41454999999999 C 77.62576000000001 -77.21176 85.41667000000001 -72.86783 85.41667000000001 -68.3384 L 85.41667000000001 68.33843 L 85.41667000000001 68.33843 C 85.41667000000001 77.77049 52.30911000000001 85.41668 11.46887000000001 85.41668 L -11.468869999999992 85.41668 L -11.468869999999992 85.41668 C -52.30910999999999 85.41668 -85.41667 77.77047999999999 -85.41667 68.33843 z" stroke-linecap="round" />
</g>
</svg>